<svg width="50" height="50" viewBox="0 0 50 50" fill="none" xmlns="http://www.w3.org/2000/svg">
<path d="M25 5.20831C19.7509 5.20831 14.7168 7.2935 11.0052 11.0052C7.2935 14.7168 5.20831 19.7509 5.20831 25C5.20831 30.2491 7.2935 35.2831 11.0052 38.9948C14.7168 42.7065 19.7509 44.7916 25 44.7916C30.2491 44.7916 35.2831 42.7065 38.9948 38.9948C42.7065 35.2831 44.7916 30.2491 44.7916 25C44.7916 19.7509 42.7065 14.7168 38.9948 11.0052C35.2831 7.2935 30.2491 5.20831 25 5.20831Z" fill="#039BE5"/>
<path d="M27.6792 30.2458H32.801L33.6052 25.0427H27.6781V22.1989C27.6781 20.0375 28.3844 18.1208 30.4062 18.1208H33.6552V13.5802C33.0844 13.5031 31.8771 13.3344 29.5958 13.3344C24.8323 13.3344 22.0396 15.85 22.0396 21.5812V25.0427H17.1427V30.2458H22.0396V44.5469C23.0094 44.6927 23.9917 44.7916 25 44.7916C25.9114 44.7916 26.801 44.7083 27.6792 44.5896V30.2458Z" fill="white"/>
</svg>
