<svg width="50" height="50" viewBox="0 0 50 50" fill="none" xmlns="http://www.w3.org/2000/svg">
<g clip-path="url(#clip0)">
<path d="M49.9758 23.4844C49.7493 25.7188 47.7415 27.3438 45.4993 27.3438H41.4055C40.4524 27.3438 39.7024 28.1875 39.8665 29.1719C39.9915 29.9375 40.7102 30.4688 41.4915 30.4688H44.1399C46.1946 30.4688 47.8508 32.25 47.6399 34.3438C47.4524 36.1719 45.8118 37.5 43.9758 37.5H39.843C38.8899 37.5 38.1399 38.3438 38.304 39.3281C38.429 40.0938 39.1477 40.625 39.929 40.625H42.5774C43.5462 40.625 44.429 41.0156 45.0618 41.6562C45.7024 42.2891 46.093 43.1719 46.093 44.1406C46.093 46.0859 44.5227 47.6562 42.5774 47.6562H8.20241C7.01491 47.6562 5.93679 47.1719 5.16335 46.3984C4.38991 45.625 3.90554 44.5469 3.90554 43.3594C3.90554 40.9844 5.82741 39.0625 8.20241 39.0625H10.9368C11.8899 39.0625 12.6399 38.2188 12.4758 37.2344C12.3508 36.4688 11.6321 35.9375 10.8508 35.9375H4.29616C2.24147 35.9375 0.585224 34.1562 0.796161 32.0625C0.983661 30.2344 2.62429 28.9062 4.46022 28.9062H10.1555C11.4915 28.9062 12.5696 27.7891 12.4993 26.4375C12.429 25.1719 11.2883 24.2188 10.0227 24.2188H3.51491C1.46022 24.2188 -0.196026 22.4375 0.0149114 20.3438C0.202411 18.5156 1.85085 17.1875 3.67897 17.1875H11.3274C12.2962 17.1875 13.179 16.7969 13.8118 16.1562C14.4524 15.5234 14.843 14.6406 14.843 13.6719C14.843 11.7266 13.2727 10.1562 11.3274 10.1562H6.63991C5.45241 10.1562 4.37429 9.67188 3.60085 8.89844C2.82741 8.125 2.34304 7.04688 2.34304 5.85938C2.34304 3.48438 4.26491 1.5625 6.63991 1.5625H44.1399C46.6477 1.5625 48.6712 3.74219 48.4133 6.29688C48.1868 8.53125 46.9602 10.1562 44.718 10.1562H43.3587C40.9837 10.1562 39.0618 12.0781 39.0618 14.4531C39.0618 15.6406 39.5462 16.7187 40.3196 17.4922C41.093 18.2656 42.1712 18.75 43.3587 18.75H45.7024C48.2102 18.75 50.2337 20.9297 49.9758 23.4844Z" fill="url(#paint0_radial)"/>
<path d="M37.0781 12.1094L36.0078 13.2656C34.9609 14.3906 33.2734 14.5703 31.9844 13.7344C29.8672 12.3672 26.9609 11.2891 23.3906 11.8828C19.5312 12.5312 16.2266 14.8906 14.2969 18.1094L8.02344 13.3594C11.7109 7.67188 18.125 3.90625 25.3906 3.90625C29.2969 3.90625 33.1562 5.125 36.5391 7.39062C38.1328 8.46094 38.3828 10.7109 37.0781 12.1094Z" fill="url(#paint1_linear)"/>
<path d="M12.5078 24.1484C12.4375 26.0781 12.7968 27.9219 13.5 29.5859L7.08591 34.3125C6.03122 32.3516 5.28904 30.1875 4.93747 27.8906C4.10935 22.5156 5.35935 17.4375 8.02341 13.3594L14.2968 18.1094C13.2265 19.8984 12.5781 21.9609 12.5078 24.1484Z" fill="url(#paint2_linear)"/>
<path d="M39.4141 40.0625C35.8594 43.2422 31.125 45.1953 25.8516 45.3047C17.8984 45.4688 10.6719 41.0391 7.08594 34.3125L13.5 29.5859C15.4531 34.2266 20.0547 37.5 25.3906 37.5C28.4688 37.5 31.2656 36.5 33.4609 34.8125L39.4141 40.0625Z" fill="url(#paint3_linear)"/>
<path d="M46.0938 24.9766C46.1016 31.0156 43.5469 36.3672 39.4141 40.0625L33.4609 34.8125C35.1016 33.5547 36.4062 31.9141 37.2422 30.0078C37.4687 29.4922 37.0859 28.9063 36.5234 28.9063H28.9063C27.1797 28.9063 25.7812 27.5078 25.7812 25.7813V24.2188C25.7812 22.4922 27.1797 21.0938 28.9063 21.0938H42.1875C44.3359 21.0937 46.0938 22.8281 46.0938 24.9766Z" fill="url(#paint4_linear)"/>
</g>
<defs>
<radialGradient id="paint0_radial" cx="0" cy="0" r="1" gradientUnits="userSpaceOnUse" gradientTransform="translate(24.9977 24.6094) scale(24.0437)">
<stop stop-color="#F4E9C3"/>
<stop offset="0.219" stop-color="#F8EECD"/>
<stop offset="0.644" stop-color="#FDF4DC"/>
<stop offset="1" stop-color="#FFF6E1"/>
</radialGradient>
<linearGradient id="paint1_linear" x1="22.9695" y1="48.3875" x2="22.9695" y2="-31.8234" gradientUnits="userSpaceOnUse">
<stop stop-color="#FF5840"/>
<stop offset="0.007" stop-color="#FF5840"/>
<stop offset="0.989" stop-color="#FA528C"/>
<stop offset="1" stop-color="#FA528C"/>
</linearGradient>
<linearGradient id="paint2_linear" x1="9.4906" y1="50.8812" x2="9.4906" y2="14.2094" gradientUnits="userSpaceOnUse">
<stop stop-color="#FEAA53"/>
<stop offset="0.612" stop-color="#FFCD49"/>
<stop offset="1" stop-color="#FFDE44"/>
</linearGradient>
<linearGradient id="paint3_linear" x1="23.25" y1="26.4461" x2="23.25" y2="56.9836" gradientUnits="userSpaceOnUse">
<stop stop-color="#42D778"/>
<stop offset="0.428" stop-color="#3DCA76"/>
<stop offset="1" stop-color="#34B171"/>
</linearGradient>
<linearGradient id="paint4_linear" x1="35.9375" y1="48.7203" x2="35.9375" y2="23.7555" gradientUnits="userSpaceOnUse">
<stop stop-color="#155CDE"/>
<stop offset="0.278" stop-color="#1F7FE5"/>
<stop offset="0.569" stop-color="#279CEB"/>
<stop offset="0.82" stop-color="#2CAFEF"/>
<stop offset="1" stop-color="#2EB5F0"/>
</linearGradient>
<clipPath id="clip0">
<rect width="50" height="50" fill="white"/>
</clipPath>
</defs>
</svg>
