<svg width="50" height="50" viewBox="0 0 50 50" fill="none" xmlns="http://www.w3.org/2000/svg">
<path d="M43.75 38.5417C43.75 41.4583 41.4583 43.75 38.5417 43.75H11.4583C8.54167 43.75 6.25 41.4583 6.25 38.5417V11.4583C6.25 8.54167 8.54167 6.25 11.4583 6.25H38.5417C41.4583 6.25 43.75 8.54167 43.75 11.4583V38.5417Z" fill="#FF9800"/>
<path d="M28.0208 31.6667C29.5833 31.3542 31.0417 30.7292 32.2917 29.8959C33.3333 29.2709 33.6458 27.9167 33.0208 26.875C32.3958 25.8334 31.0417 25.5209 30 26.1459C26.9792 28.0209 23.0208 28.0209 20 26.1459C18.9583 25.5209 17.6042 25.8334 16.9792 26.875C16.3542 27.9167 16.6667 29.2709 17.7083 29.8959C19.0625 30.7292 20.5208 31.3542 21.9792 31.6667L17.8125 35.8334C16.9792 36.6667 16.9792 38.0209 17.8125 38.9584C18.2292 39.375 18.75 39.5834 19.375 39.5834C19.8958 39.5834 20.5208 39.375 20.9375 38.9584L25 34.8959L29.0625 38.9584C29.8958 39.7917 31.25 39.7917 32.1875 38.9584C33.0208 38.125 33.0208 36.7709 32.1875 35.8334L28.0208 31.6667ZM25 10.4167C20.9375 10.4167 17.7083 13.6459 17.7083 17.7084C17.7083 21.7709 20.9375 25 25 25C29.0625 25 32.2917 21.7709 32.2917 17.7084C32.2917 13.6459 29.0625 10.4167 25 10.4167ZM25 20.8334C23.2292 20.8334 21.875 19.4792 21.875 17.7084C21.875 15.9375 23.2292 14.5834 25 14.5834C26.7708 14.5834 28.125 15.9375 28.125 17.7084C28.125 19.4792 26.7708 20.8334 25 20.8334Z" fill="white"/>
</svg>
