<svg width="50" height="50" viewBox="0 0 50 50" fill="none" xmlns="http://www.w3.org/2000/svg">
<path d="M41.6667 6.25H8.33333C7.18229 6.25 6.25 7.18229 6.25 8.33333V41.6667C6.25 42.8177 7.18229 43.75 8.33333 43.75H41.6667C42.8177 43.75 43.75 42.8177 43.75 41.6667V8.33333C43.75 7.18229 42.8177 6.25 41.6667 6.25Z" fill="url(#paint0_linear)"/>
<path opacity="0.05" d="M38.476 17.7511C38.5239 17.5938 38.5469 17.4479 38.5406 17.3177C38.525 16.9406 38.2656 16.6667 37.6552 16.6667H33.3281C32.6396 16.6667 32.3219 17.0834 32.1364 17.5011C32.1364 17.5011 30.3448 21.3386 29.926 22.1354C29.2906 22.8031 28.8791 23.5531 28.5354 23.5531C28.351 23.5531 28.125 23.7354 28.125 23.124V17.7229C28.125 17 27.9448 16.6667 27.3625 16.6667H20.4364C20.0125 16.6667 19.7916 17 19.7916 17.3344C19.7916 18.0292 20.7271 20.2792 20.8333 22.2261V23.1584C20.8333 23.8209 20.9385 24.45 20.6906 24.45C20.3885 24.45 19.3323 22.1146 18.4396 17.7792C18.175 16.9729 17.9104 16.6667 17.2219 16.6667H12.3854C11.5906 16.6667 11.4583 17.0563 11.4583 17.4729C11.4583 19.1521 12.3375 24.0271 15.7489 28.6959C18.2229 32.0813 22.2698 34.375 25.1552 34.375C26.4437 34.375 28.1239 34.3542 28.1239 32.4167C28.1239 30.4792 28.1031 29.4636 28.2948 29.4636C28.5427 29.4636 28.6594 29.5771 30.2219 31.4C32.025 33.5011 32.4656 34.375 33.4989 34.375H37.5302C38.1635 34.375 38.5271 34.1094 38.5416 33.5938C38.5416 32.2656 38.1521 31.4969 36.1979 28.6323C35.5573 27.8584 34.375 26.5531 34.375 26.0281C34.375 25.4375 37.6969 20.949 38.476 17.7511Z" fill="black"/>
<path opacity="0.07" d="M37.9552 18.2719C38.0031 18.1146 38.0261 17.9688 38.0198 17.8385C38.0042 17.4615 37.7448 17.1875 37.1344 17.1875H33.6073C32.9188 17.1875 32.6011 17.6042 32.4156 18.0219C32.4156 18.0219 30.6698 21.6906 29.4802 23.2427C28.8448 23.9104 28.4781 24.2771 28.1344 24.2771C27.95 24.2771 27.6042 24.2573 27.6042 23.6458V18.2448C27.6042 17.5219 27.424 17.1885 26.8417 17.1885H20.9573C20.5334 17.1885 20.3125 17.5219 20.3125 17.8563C20.3125 18.551 21.2479 19.7594 21.3542 21.7062V24.0594C21.3542 24.849 21.3271 25.2469 21.0313 25.2469C20.4167 25.2469 18.9761 22.5167 17.9188 18.301C17.6542 17.4948 17.3896 17.1885 16.7011 17.1885H12.9063C12.1115 17.1885 11.9792 17.5781 11.9792 17.9948C11.9792 19.2104 12.7313 23.6771 16.1427 28.3458C18.6167 31.7313 22.2698 33.8552 25.1552 33.8552C26.6729 33.8552 27.6031 33.625 27.6031 32.3063V30.0333C27.6042 29.199 27.6886 28.7948 28.0625 28.7948C28.3854 28.7948 28.8479 28.9813 30.4104 30.8042C32.2125 32.9063 32.5969 33.8542 33.6302 33.8542H37.0094C37.6427 33.8542 38.0063 33.5885 38.0209 33.0729C38.0209 32.0458 37.3052 30.7438 35.6771 28.6385C35.0365 27.8646 33.8542 26.6313 33.8542 26.0344C33.8542 25.4375 36.8177 21.9375 37.9552 18.2719Z" fill="black"/>
<path d="M37.4344 18.7927C37.4823 18.6354 37.5052 18.4896 37.499 18.3594C37.4833 17.9823 37.224 17.7083 36.6135 17.7083H33.8865C33.1979 17.7083 32.8802 18.125 32.6948 18.5427C32.6948 18.5427 30.9948 22.0416 29.0354 24.3489C28.4 25.0166 28.0771 25 27.7333 25C27.549 25 27.0833 24.7771 27.0833 24.1656V18.7646C27.0833 18.0416 26.9031 17.7083 26.3208 17.7083H21.4781C21.0542 17.7083 20.8333 18.0416 20.8333 18.376C20.8333 19.0708 21.7688 19.2375 21.875 21.1844V24.9583C21.875 25.875 21.7156 26.0416 21.3719 26.0416C20.4448 26.0416 18.6198 22.9166 17.3979 18.8208C17.1333 18.0146 16.8688 17.7083 16.1802 17.7083H13.4271C12.6323 17.7083 12.5 18.0979 12.5 18.5146C12.5 19.2656 13.125 23.326 16.5365 27.9948C19.0104 31.3802 22.2698 33.3333 25.1552 33.3333C26.9031 33.3333 27.0823 32.8885 27.0823 32.1937V29.0979C27.0833 28.2635 27.274 28.125 27.8302 28.125C28.2271 28.125 29.0365 28.3854 30.599 30.2083C32.401 32.3104 32.7281 33.3333 33.7615 33.3333H36.4885C37.1219 33.3333 37.4854 33.0677 37.5 32.5521C37.5031 32.4208 37.4844 32.2739 37.4417 32.1104C37.2396 31.5104 36.3125 30.0437 35.1563 28.6458C34.5156 27.8719 33.8833 27.1052 33.5927 26.6885C33.3979 26.4166 33.324 26.225 33.3333 26.0416C33.3427 25.8489 33.4427 25.6656 33.5927 25.4094C33.5656 25.4094 37.0906 20.4604 37.4344 18.7927Z" fill="white"/>
<defs>
<linearGradient id="paint0_linear" x1="18.9458" y1="6.25104" x2="30.6729" y2="42.5677" gradientUnits="userSpaceOnUse">
<stop stop-color="#33BEF0"/>
<stop offset="1" stop-color="#0A85D9"/>
</linearGradient>
</defs>
</svg>
